<svg id="svg" fill="#000000" stroke="#000000" width="200px" height="200px" version="1.1" viewBox="144 144 512 512" xmlns="http://www.w3.org/2000/svg">
    <g id="IconSvg_bgCarrier" stroke-width="0"></g>
    <g id="IconSvg_tracerCarrier" stroke-linecap="round" stroke-linejoin="round" stroke="#CCCCCC"></g>
     <g id="IconSvg_iconCarrier">
      <path xmlns="http://www.w3.org/2000/svg" d="m541.7 179.58h-283.39c-20.875 0-40.898 8.293-55.664 23.055-14.762 14.766-23.055 34.789-23.055 55.664v283.39c0 20.879 8.293 40.898 23.055 55.664 14.766 14.762 34.789 23.055 55.664 23.055h258.83c2.1641-0.007812 4.3008-0.43359 6.3008-1.2578 1.9961-0.92578 3.8086-2.207 5.3516-3.7773l87.379-94.465c1.3594-1.4648 2.4297-3.1758 3.1484-5.0391 0.074219-0.83984 0.074219-1.6797 0-2.5195 0.14844-1.043 0.14844-2.1055 0-3.1484v-251.91c0.003906-20.688-8.1406-40.543-22.664-55.277-14.527-14.73-34.266-23.152-54.953-23.441zm-5.0391 381.32-3.4648 3.6211v-29.914c7.3047 2.6094 14.848 4.5078 22.516 5.668zm52.27-57.938c-4.4648 3.8398-9.9219 6.3477-15.742 7.2422-16.598-0.42969-32.824-4.9766-47.234-13.227-3.1836-2.043-6.9961-2.8711-10.738-2.332-3.7461 0.53906-7.1719 2.4062-9.6523 5.2656-2.4805 2.8555-3.8477 6.5117-3.8555 10.293v78.719h-243.4c-12.527 0-24.539-4.9766-33.398-13.832-8.8555-8.8594-13.832-20.871-13.832-33.398v-236.16h377.86zm0-228.92h-377.86v-15.746c0-12.527 4.9766-24.539 13.832-33.398 8.8594-8.8555 20.871-13.832 33.398-13.832h283.39c12.527 0 24.539 4.9766 33.398 13.832 8.8555 8.8594 13.832 20.871 13.832 33.398zm-314.88-47.234c-4.1758 0-8.1797 1.6602-11.133 4.6133-2.9531 2.9531-4.6133 6.957-4.6133 11.133 0 4.1758 1.6602 8.1797 4.6133 11.133 2.9531 2.9531 6.957 4.6094 11.133 4.6094s8.1797-1.6562 11.133-4.6094c2.9531-2.9531 4.6094-6.957 4.6094-11.133 0-4.1758-1.6562-8.1797-4.6094-11.133-2.9531-2.9531-6.957-4.6133-11.133-4.6133zm251.9 0c-4.1758 0-8.1797 1.6602-11.133 4.6133-2.9492 2.9531-4.6094 6.957-4.6094 11.133 0 4.1758 1.6602 8.1797 4.6094 11.133 2.9531 2.9531 6.957 4.6094 11.133 4.6094s8.1836-1.6562 11.133-4.6094c2.9531-2.9531 4.6133-6.957 4.6133-11.133 0-4.1758-1.6602-8.1797-4.6133-11.133-2.9492-2.9531-6.957-4.6133-11.133-4.6133zm-259.77 125.95h31.488c5.6211 0 10.82-3 13.633-7.8711 2.8125-4.8711 2.8125-10.871 0-15.746-2.8125-4.8711-8.0117-7.8711-13.633-7.8711h-31.488c-5.625 0-10.824 3-13.637 7.8711-2.8125 4.875-2.8125 10.875 0 15.746 2.8125 4.8711 8.0117 7.8711 13.637 7.8711zm78.719 0h31.488c5.625 0 10.82-3 13.633-7.8711 2.8125-4.8711 2.8125-10.871 0-15.746-2.8125-4.8711-8.0078-7.8711-13.633-7.8711h-31.488c-5.625 0-10.824 3-13.637 7.8711-2.8125 4.875-2.8125 10.875 0 15.746 2.8125 4.8711 8.0117 7.8711 13.637 7.8711zm78.719 0h31.488c5.625 0 10.824-3 13.637-7.8711 2.8125-4.8711 2.8125-10.871 0-15.746-2.8125-4.8711-8.0117-7.8711-13.637-7.8711h-31.488c-5.625 0-10.82 3-13.633 7.8711-2.8125 4.875-2.8125 10.875 0 15.746 2.8125 4.8711 8.0078 7.8711 13.633 7.8711zm78.719 0h31.492c5.625 0 10.82-3 13.633-7.8711 2.8125-4.8711 2.8125-10.871 0-15.746-2.8125-4.8711-8.0078-7.8711-13.633-7.8711h-31.488c-5.625 0-10.824 3-13.637 7.8711-2.8125 4.875-2.8125 10.875 0 15.746 2.8125 4.8711 8.0117 7.8711 13.637 7.8711zm-236.16 62.977h31.492c5.6211 0 10.82-3 13.633-7.8711s2.8125-10.875 0-15.746-8.0117-7.8711-13.633-7.8711h-31.488c-5.625 0-10.824 3-13.637 7.8711s-2.8125 10.875 0 15.746 8.0117 7.8711 13.637 7.8711zm78.719 0h31.492c5.625 0 10.82-3 13.633-7.8711s2.8125-10.875 0-15.746-8.0078-7.8711-13.633-7.8711h-31.488c-5.625 0-10.824 3-13.637 7.8711s-2.8125 10.875 0 15.746 8.0117 7.8711 13.637 7.8711zm78.719 0h31.492c5.625 0 10.824-3 13.637-7.8711s2.8125-10.875 0-15.746-8.0117-7.8711-13.637-7.8711h-31.488c-5.625 0-10.82 3-13.633 7.8711s-2.8125 10.875 0 15.746 8.0078 7.8711 13.633 7.8711zm78.719 0h31.496c5.625 0 10.82-3 13.633-7.8711s2.8125-10.875 0-15.746-8.0078-7.8711-13.633-7.8711h-31.488c-5.625 0-10.824 3-13.637 7.8711s-2.8125 10.875 0 15.746 8.0117 7.8711 13.637 7.8711zm-236.16 62.977h31.496c5.6211 0 10.82-3 13.633-7.8711s2.8125-10.875 0-15.746c-2.8125-4.8711-8.0117-7.8711-13.633-7.8711h-31.488c-5.625 0-10.824 3-13.637 7.8711-2.8125 4.8711-2.8125 10.875 0 15.746s8.0117 7.8711 13.637 7.8711zm78.719 0h31.496c5.625 0 10.82-3 13.633-7.8711s2.8125-10.875 0-15.746c-2.8125-4.8711-8.0078-7.8711-13.633-7.8711h-31.488c-5.625 0-10.824 3-13.637 7.8711-2.8125 4.8711-2.8125 10.875 0 15.746s8.0117 7.8711 13.637 7.8711zm78.719 0h31.496c5.625 0 10.824-3 13.637-7.8711s2.8125-10.875 0-15.746c-2.8125-4.8711-8.0117-7.8711-13.637-7.8711h-31.488c-5.625 0-10.82 3-13.633 7.8711-2.8125 4.8711-2.8125 10.875 0 15.746s8.0078 7.8711 13.633 7.8711zm78.719 0h31.5c5.625 0 10.82-3 13.633-7.8711s2.8125-10.875 0-15.746c-2.8125-4.8711-8.0078-7.8711-13.633-7.8711h-31.488c-5.625 0-10.824 3-13.637 7.8711-2.8125 4.8711-2.8125 10.875 0 15.746s8.0117 7.8711 13.637 7.8711zm-236.16 62.977h31.5c5.6211 0 10.82-3 13.633-7.8711 2.8125-4.8711 2.8125-10.875 0-15.746s-8.0117-7.8711-13.633-7.8711h-31.488c-5.625 0-10.824 3-13.637 7.8711s-2.8125 10.875 0 15.746c2.8125 4.8711 8.0117 7.8711 13.637 7.8711zm78.719 0h31.5c5.625 0 10.82-3 13.633-7.8711 2.8125-4.8711 2.8125-10.875 0-15.746s-8.0078-7.8711-13.633-7.8711h-31.488c-5.625 0-10.824 3-13.637 7.8711s-2.8125 10.875 0 15.746c2.8125 4.8711 8.0117 7.8711 13.637 7.8711zm78.719 0h31.5c5.625 0 10.824-3 13.637-7.8711 2.8125-4.8711 2.8125-10.875 0-15.746s-8.0117-7.8711-13.637-7.8711h-31.488c-5.625 0-10.82 3-13.633 7.8711s-2.8125 10.875 0 15.746c2.8125 4.8711 8.0078 7.8711 13.633 7.8711z"></path>

      </g>
      </svg>