<svg id="svg" fill="#000000" stroke="#000000" width="200px" height="200px" version="1.1" viewBox="144 144 512 512" xmlns="http://www.w3.org/2000/svg">
    <g id="IconSvg_bgCarrier" stroke-width="0"></g>
    <g id="IconSvg_tracerCarrier" stroke-linecap="round" stroke-linejoin="round" stroke="#CCCCCC"></g>
     <g id="IconSvg_iconCarrier">
      <g xmlns="http://www.w3.org/2000/svg">
  <path d="m400 160.69c-132 0-239.31 107.31-239.31 239.31 0 63.984 24.688 123.94 69.527 168.78 45.344 45.344 105.3 70.535 169.79 70.535 63.984 0 124.44-25.191 169.79-70.535 44.84-45.344 69.527-105.3 69.527-168.78-0.003906-132-107.32-239.31-239.31-239.31zm149.12 365.77c-4.5352-23.176-22.672-41.312-45.848-46.352l-46.352-10.078c-3.5273-0.50391-6.5508 1.0078-7.5586 4.0312l-28.719 77.082-11.082-38.793h1.0078c3.0234 0 6.0469-2.5195 6.5508-5.543l2.5195-15.617c0.50391-4.0312-2.5195-7.5586-6.5508-7.5586h-26.199c-4.0312 0-7.0547 3.5273-6.5508 7.5586l2.5195 15.617c0.50391 3.0234 3.0234 5.543 6.5508 5.543h1.0078l-11.082 38.793-28.719-77.082c-1.0078-3.0234-4.5352-5.0391-7.5586-4.0312l-46.352 10.078c-23.176 5.0391-40.809 23.176-45.848 46.352-30.23-35.266-46.352-79.602-46.352-126.46 0-107.82 87.664-195.98 195.98-195.98 108.33 0 195.49 88.168 195.49 195.98 0 46.852-16.625 91.188-46.855 126.45z"></path>
  <path d="m480.61 343.57h-2.5195c-3.0234-48.363-18.641-84.637-78.09-84.637s-75.066 36.273-78.09 84.641h-2.5195c-7.0547 1.5117-11.082 14.105-8.5664 28.719 2.0156 12.594 8.5664 21.664 14.609 23.176 11.586 42.824 44.84 73.555 74.059 73.555 29.727 0 62.977-30.73 74.059-73.555 6.0469-1.5117 12.594-11.082 14.609-23.176 3.5312-14.613-0.5-27.211-7.5508-28.723z"></path>
 </g>

      </g>
      </svg>