<svg id="svg" fill="#000000" stroke="#000000" width="200px" height="200px" version="1.1" viewBox="144 144 512 512" xmlns="http://www.w3.org/2000/svg">
    <g id="IconSvg_bgCarrier" stroke-width="0"></g>
    <g id="IconSvg_tracerCarrier" stroke-linecap="round" stroke-linejoin="round" stroke="#CCCCCC"></g>
     <g id="IconSvg_iconCarrier">
      <g xmlns="http://www.w3.org/2000/svg">
  <path d="m491.11 408.54c-7.8008 1.3242-15.18 5.1328-20.777 10.73l-25.617 25.617c-7.0703 7.0703-11.09 16.449-11.32 26.426l-0.99219 44.371c-11.789 3.0742-20.617 13.758-20.75 26.465l-0.59375 55.59c-0.082031 7.3672 2.7305 14.344 7.918 19.637 5.1836 5.2969 12.098 8.2578 19.469 8.332l92.227 1h0.30078c15.098 0 27.508-12.281 27.676-27.387l0.59375-55.59c0.13672-12.75-8.4297-23.582-20.141-26.902l0.50391-3.4727c1.4922-10 6.0508-19.062 13.191-26.203l43.273-43.266c10.629-10.629 17.34-24.672 18.898-39.539l4.5938-43.59c0.32812-1.582 0.50391-3.2188 0.51953-4.918l0.011718-0.089844c0-0.015625-0.003906-0.023437-0.003906-0.039062 0-0.22266 0.035156-0.42969 0.03125-0.64844l-2.2422-70.227c-0.16016-4.5391-2.0195-8.8164-5.2383-12.031-3.4375-3.4375-8.1914-5.332-13.176-5.2344-18.57 0.61328-33.215 16.227-32.648 34.816l1.0977 33.812-6.2656 25.375c-6.8203-0.61328-13.844 1.5781-19.055 6.7852l-37.781 37.805zm58.055 135.09-0.59766 55.59c-0.097656 9.6055-7.9922 17.418-17.59 17.418v5.0391l-0.19531-5.0391-92.23-0.98828c-4.6797-0.050782-9.0742-1.9336-12.375-5.3086-3.3008-3.3711-5.0938-7.8047-5.043-12.484l0.59375-55.59c0.10547-9.6016 7.9961-17.418 17.789-17.418l92.23 0.98828c9.7148 0.10547 17.523 8.0898 17.418 17.793zm0.54297-168.13c5.3906-5.3906 14.172-5.3906 19.562 0 5.3906 5.3906 5.3906 14.172 0 19.562l-44.699 44.699c-1.9688 1.9688-1.9688 5.1523 0 7.125 0.98438 0.98438 2.2734 1.4766 3.5625 1.4766 1.2891 0 2.5781-0.49219 3.5625-1.4766l44.699-44.699c9.3203-9.3203 9.3203-24.488 0-33.812-1.5508-1.5508-3.3008-2.7461-5.1172-3.7852l6.5859-26.648c0.054687-0.23047 0.003906-0.45312 0.03125-0.67969 0.023437-0.23828 0.125-0.44922 0.11719-0.69141l-1.1172-34.496c-0.39844-13.039 9.8789-24 22.852-24.43 2.2305-0.10547 4.2539 0.76172 5.7734 2.2891 1.4258 1.4258 2.2148 3.25 2.293 5.2461l2.2305 69.863-5.0898 48.254c-1.3164 12.582-7.0039 24.465-16 33.469l-43.273 43.266c-8.6758 8.6797-14.219 19.688-16.035 31.855l-0.55859 3.8398-86.574-0.92578 0.96875-43.258c0.17578-7.3672 3.1484-14.305 8.375-19.531l25.617-25.617c4.1328-4.1328 9.5781-6.9414 15.352-7.9258l15.289-2.6406c0.17578-0.03125 0.3125-0.14062 0.48437-0.1875 0.33203-0.089844 0.64063-0.20703 0.95313-0.36719 0.30859-0.16016 0.57422-0.34375 0.83594-0.55469 0.14062-0.10938 0.30859-0.16016 0.4375-0.29297z"></path>
  <path d="m179.9 355.76v0.023438c0.011718 1.707 0.19141 3.375 0.52344 4.9922l4.5938 43.574c1.5586 14.871 8.2656 28.914 18.898 39.543l43.273 43.266c7.1406 7.1406 11.699 16.203 13.184 26.184l0.50781 3.4922c-11.719 3.3242-20.277 14.152-20.141 26.902l0.59375 55.59c0.17578 15.105 12.59 27.387 27.684 27.387l92.535-0.98828c7.3672-0.082031 14.281-3.0391 19.469-8.332 5.1836-5.2969 7.9961-12.273 7.918-19.637l-0.59375-55.59c-0.13672-12.645-8.8789-23.285-20.75-26.418l-0.99219-44.426c-0.23047-9.9688-4.2539-19.352-11.32-26.418l-25.617-25.617c-5.5977-5.5977-12.973-9.4062-20.758-10.727l-13.715-2.3672-37.781-37.805c-5.2109-5.2109-12.234-7.4023-19.055-6.7852l-6.2656-25.375 1.0977-33.82c0.57031-18.582-14.078-34.199-32.703-34.812-4.9844-0.082031-9.6836 1.7969-13.121 5.2383-3.2148 3.2148-5.0742 7.4883-5.2383 12.051l-2.25 70.242c-0.003906 0.21094 0.023438 0.41406 0.03125 0.625 0 0-0.007812 0.003906-0.007812 0.007812zm198.37 186.51 0.59375 55.59c0.050781 4.6758-1.7422 9.1094-5.043 12.484-3.3008 3.375-7.6914 5.2617-12.375 5.3086l-92.23 0.98828-0.19531 5.0391v-5.0391c-9.5977 0-17.492-7.8125-17.598-17.418l-0.59375-55.59c-0.10547-9.707 7.707-17.688 17.418-17.793l92.43-0.98828c9.5938 0 17.488 7.8125 17.594 17.418zm-183.79-262.33c1.5234-1.5234 3.6719-2.3828 5.7188-2.2891 13.027 0.42969 23.305 11.391 22.91 24.426l-1.1172 34.508c-0.011719 0.24219 0.089844 0.45312 0.11719 0.69141 0.023438 0.23047-0.023437 0.45312 0.03125 0.67969l6.5859 26.648c-1.8203 1.0312-3.5703 2.2305-5.1172 3.7852-9.3203 9.3203-9.3203 24.488 0 33.812l44.699 44.699c0.98438 0.98437 2.2734 1.4766 3.5625 1.4766s2.5781-0.49219 3.5625-1.4766c1.9688-1.9688 1.9688-5.1523 0-7.125l-44.699-44.699c-5.3906-5.3906-5.3906-14.172 0-19.562s14.172-5.3906 19.559 0l38.91 38.934c0.13281 0.13281 0.29688 0.17578 0.4375 0.29297 0.26172 0.21094 0.52734 0.39844 0.83594 0.55469 0.3125 0.16016 0.62109 0.27734 0.95312 0.36719 0.17188 0.050782 0.30078 0.15625 0.48438 0.1875l15.305 2.6445c5.7578 0.97656 11.199 3.7891 15.332 7.918l25.617 25.617c5.2305 5.2305 8.1953 12.168 8.375 19.527l0.96875 43.262-86.574 0.92578-0.55859-3.8555c-1.8125-12.152-7.3555-23.16-16.031-31.84l-43.273-43.266c-9.0039-9.0039-14.688-20.887-16-33.473l-5.0898-48.254 2.2305-69.84c0.050781-2.0352 0.83984-3.8516 2.2656-5.2773z"></path>
  <path d="m400 332.88c23.852 0 43.258-19.406 43.258-43.258-0.003906-23.848-19.41-43.262-43.258-43.262-23.852 0-43.258 19.406-43.258 43.258 0 23.852 19.406 43.262 43.258 43.262zm0-76.441c18.293 0 33.18 14.887 33.18 33.18 0 18.297-14.887 33.18-33.18 33.18s-33.18-14.887-33.18-33.18c-0.003906-18.293 14.887-33.18 33.18-33.18z"></path>
  <path d="m291.76 326.28c-1.0078 3.7578-0.48828 7.6797 1.457 11.043l12.078 20.914c1.9453 3.3672 5.082 5.7734 8.8359 6.7812 1.2539 0.33594 2.5234 0.50391 3.7891 0.50391 2.5234 0 5.0117-0.66016 7.2539-1.9531l15.633-9.0273c9.3945 8.5664 20.52 14.988 32.555 18.797v18.055c0 8.0273 6.5312 14.555 14.555 14.555h24.152c8.0273 0 14.555-6.5312 14.555-14.555v-18.055c12.031-3.8086 23.156-10.23 32.555-18.797l15.637 9.0234c2.2422 1.293 4.7305 1.9609 7.2539 1.9609 1.2656 0 2.5352-0.16797 3.7891-0.50391 3.7578-1.0078 6.8984-3.4141 8.8438-6.7812l12.07-20.914c1.9453-3.3672 2.4648-7.2891 1.457-11.043-1.0078-3.7539-3.4141-6.8984-6.7812-8.8359l-15.637-9.0273c1.3438-6.1367 2.0664-12.434 2.0664-18.797 0-6.3672-0.67969-12.68-2.0195-18.816l15.598-9.0039c3.3672-1.9453 5.7734-5.082 6.7812-8.8359 1.0078-3.7539 0.48828-7.6797-1.457-11.043l-12.078-20.918c-4.0117-6.9492-12.938-9.3398-19.887-5.332l-15.633 9.0273c-9.3828-8.5586-20.504-14.984-32.555-18.797v-18.066c0-8.0273-6.5273-14.555-14.555-14.555h-24.152c-8.0273 0-14.555 6.5312-14.555 14.555v18.055c-12.051 3.8125-23.176 10.238-32.555 18.797l-15.637-9.0273c-6.9492-4.0039-15.863-1.6211-19.887 5.332l-12.07 20.914c-1.9453 3.3672-2.4648 7.2891-1.457 11.047 1.0078 3.7578 3.4141 6.8984 6.7812 8.8359l15.633 9.0234c-1.3398 6.1367-2.0625 12.434-2.0625 18.797 0 6.3594 0.71875 12.656 2.0664 18.797l-15.637 9.0273c-3.3672 1.9453-5.7734 5.0859-6.7812 8.8438zm9.7305 2.6055c0.3125-1.1523 1.0469-2.1211 2.0898-2.7188l17.191-9.9297c0.75-0.43359 1.4727-0.92188 2.1406-1.4258 0.015626-0.011719 0.023438-0.03125 0.039063-0.046875 0.24609-0.19141 0.40625-0.45312 0.60938-0.68359 0.67969-0.76172 1.1836-1.6367 1.3203-2.6094 0-0.015625-0.003906-0.03125 0-0.046875 0.085938-0.63672 0.050782-1.2852-0.11719-1.9141-0.003906-0.015625 0-0.023438 0-0.039063-1.707-6.4297-2.5703-13.113-2.5703-19.863 0-6.7656 0.86328-13.461 2.5703-19.891v-0.011719c0.17969-0.69531 0.19531-1.4062 0.082031-2.1016-0.21094-1.2734-0.90234-2.4219-1.9414-3.2031-0.66406-0.49219-1.375-0.98438-2.125-1.4141l-17.195-9.9258c-1.0391-0.59766-1.7773-1.5625-2.0898-2.7188-0.3125-1.1602-0.15234-2.3633 0.44922-3.4023l12.07-20.914c1.2383-2.1367 3.9805-2.875 6.1211-1.6406l17.199 9.9297c0.71094 0.41406 1.457 0.76562 2.1875 1.082 0.66016 0.30078 1.3594 0.48437 2.0703 0.48437 0.69141 0 1.3711-0.16797 2.0156-0.45312 0.57031-0.24219 1.0938-0.57813 1.543-1.0195 9.5742-9.5234 21.484-16.398 34.441-19.887 0.019531-0.003907 0.035156-0.023438 0.054688-0.03125 0.30078-0.085938 0.55469-0.27734 0.83203-0.41406 0.90625-0.45312 1.6875-1.0781 2.1719-1.918 0.050781-0.085937 0.054687-0.20312 0.10156-0.28906 0.24609-0.5 0.44922-1.0195 0.51953-1.5781 0-0.015625 0.011718-0.023438 0.015624-0.039063 0.10156-0.83203 0.16016-1.6992 0.16016-2.5625v-19.852c0-2.4688 2.0117-4.4805 4.4805-4.4805h24.152c2.4688 0 4.4805 2.0117 4.4805 4.4805v19.855c0 0.86719 0.066406 1.7344 0.16016 2.5625 0 0.015626 0.011719 0.023438 0.015625 0.046876 0.03125 0.23828 0.14453 0.44141 0.21094 0.67578 0.10547 0.38672 0.19531 0.78516 0.38672 1.1289 0.10547 0.19531 0.27734 0.33594 0.40625 0.51953 0.24219 0.32422 0.47266 0.64453 0.78125 0.90234 0.17969 0.15234 0.40234 0.24219 0.60937 0.36719 0.34375 0.21094 0.67578 0.40234 1.0625 0.52734 0.082032 0.023438 0.14063 0.089844 0.22266 0.10938 12.957 3.4883 24.867 10.363 34.441 19.887 0.4375 0.43359 0.96094 0.76172 1.5156 1.0039 0.64844 0.29297 1.3398 0.46484 2.0391 0.46484 0.71094 0 1.4102-0.17969 2.0703-0.48438 0.73047-0.31641 1.4727-0.67188 2.1875-1.082l17.195-9.9297c2.1406-1.2383 4.8867-0.5 6.1172 1.6367l12.078 20.918c0.59766 1.0391 0.75391 2.2422 0.44922 3.3945-0.30859 1.1523-1.0469 2.1211-2.0898 2.7188l-17.191 9.9258c-0.68359 0.39844-1.3438 0.83984-1.9648 1.293-0.99219 0.67969-1.7422 1.7148-2.0508 2.9414-0.23828 0.94531-0.19141 1.918 0.10547 2.8047 1.6523 6.3398 2.4883 12.922 2.4883 19.582 0 6.75-0.86328 13.438-2.5703 19.863-0.003906 0.015625 0 0.023438 0 0.039063-0.16016 0.62891-0.19531 1.2812-0.11719 1.9141 0 0.015625-0.003906 0.03125 0 0.046875 0.13672 0.97266 0.63672 1.8477 1.3203 2.6094 0.20703 0.22656 0.36328 0.49219 0.60938 0.68359 0.015625 0.015625 0.023438 0.03125 0.039063 0.046875 0.67188 0.50391 1.3906 0.99219 2.1406 1.4258l17.195 9.9297c1.0391 0.59766 1.7773 1.5625 2.0898 2.7188 0.3125 1.1602 0.15234 2.3633-0.44922 3.4023l-12.07 20.914c-0.59766 1.0391-1.5664 1.7773-2.7266 2.0898-1.1523 0.30859-2.3594 0.15234-3.3945-0.44922l-17.199-9.9258c-0.74609-0.43359-1.5312-0.8125-2.2969-1.1367-0.015625-0.003906-0.03125-0.003906-0.046875-0.011719-0.42969-0.17578-0.88281-0.22266-1.3398-0.27734-1.5273-0.1875-3.043 0.26562-4.125 1.3281-0.003907 0.003907-0.015626 0.011719-0.023438 0.015626-9.5938 9.5234-21.496 16.395-34.422 19.871-0.019531 0.003907-0.03125 0.019531-0.050781 0.023438-0.36719 0.10547-0.67578 0.32422-1.0078 0.5-0.83203 0.45312-1.5508 1.043-2.0039 1.8398-0.054687 0.089844-0.058594 0.21094-0.10547 0.30859-0.24219 0.49219-0.44141 1.0078-0.51562 1.5586 0 0.015625-0.011719 0.023438-0.015625 0.039062-0.10156 0.83203-0.16016 1.6992-0.16016 2.5625v19.855c0 2.4688-2.0117 4.4805-4.4805 4.4805h-24.152c-2.4688 0-4.4805-2.0117-4.4805-4.4805v-19.855c0-0.86719-0.066407-1.7344-0.16016-2.5625 0-0.015624-0.011718-0.023437-0.015624-0.039062-0.066407-0.51953-0.26172-0.99219-0.48047-1.4609-0.058594-0.13281-0.070313-0.28906-0.14062-0.40625-0.3125-0.54297-0.73047-1.0234-1.2227-1.4219-0.011719-0.011719-0.015626-0.019532-0.023438-0.03125-0.20703-0.16016-0.48047-0.23828-0.71094-0.36328-0.34375-0.19141-0.66406-0.41406-1.043-0.51953-0.019532-0.003906-0.03125-0.019531-0.050782-0.023437-12.93-3.4766-24.832-10.348-34.422-19.863-0.003907-0.003906-0.015626-0.003906-0.019532-0.011718-1.0938-1.0781-2.6367-1.5312-4.1758-1.3281-0.4375 0.054688-0.88281 0.10156-1.3008 0.27344-0.015625 0.003906-0.023438 0.003906-0.039063 0.011719-0.76562 0.32812-1.5508 0.70703-2.3008 1.1367l-17.195 9.9297c-1.0312 0.59766-2.2422 0.76172-3.4023 0.44922-1.1523-0.3125-2.1211-1.0469-2.7188-2.0898l-12.078-20.914c-0.60547-1.0547-0.76953-2.2617-0.45703-3.418z"></path>
 </g>

      </g>
      </svg>